<svg width="24" height="24" viewBox="0 0 24 24" fill="none" xmlns="http://www.w3.org/2000/svg">
<path d="M5.41001 21.75C4.29001 21.75 3.58001 21.37 3.13001 20.92C2.25001 20.04 1.63001 18.17 3.61001 14.2L4.48001 12.47C4.59001 12.24 4.59001 11.76 4.48001 11.53L3.61001 9.80002C1.62001 5.83002 2.25001 3.95002 3.13001 3.08002C4.00001 2.20002 5.88001 1.57002 9.84001 3.56002L18.4 7.84002C20.53 8.90002 21.7 10.38 21.7 12C21.7 13.62 20.53 15.1 18.41 16.16L9.85001 20.44C7.91001 21.41 6.47001 21.75 5.41001 21.75ZM5.41001 3.75002C4.87001 3.75002 4.45001 3.88002 4.19001 4.14002C3.46001 4.86002 3.75001 6.73002 4.95001 9.12002L5.82001 10.86C6.14001 11.51 6.14001 12.49 5.82001 13.14L4.95001 14.87C3.75001 17.27 3.46001 19.13 4.19001 19.85C4.91001 20.58 6.78001 20.29 9.18001 19.09L17.74 14.81C19.31 14.03 20.2 13 20.2 11.99C20.2 10.98 19.3 9.95002 17.73 9.17002L9.17001 4.90002C7.65001 4.14002 6.34001 3.75002 5.41001 3.75002Z" fill="#ffffff"/>
<path d="M10.84 12.75H5.44C5.03 12.75 4.69 12.41 4.69 12C4.69 11.59 5.03 11.25 5.44 11.25H10.84C11.25 11.25 11.59 11.59 11.59 12C11.59 12.41 11.25 12.75 10.84 12.75Z" fill="#ffffff"/>
</svg>
